<?xml version="1.0" encoding="UTF-8" standalone="no"?>
<!-- Created with Inkscape (http://www.inkscape.org/) -->

<svg
   xmlns:dc="http://purl.org/dc/elements/1.1/"
   xmlns:cc="http://creativecommons.org/ns#"
   xmlns:rdf="http://www.w3.org/1999/02/22-rdf-syntax-ns#"
   xmlns:svg="http://www.w3.org/2000/svg"
   xmlns="http://www.w3.org/2000/svg"
   xmlns:sodipodi="http://sodipodi.sourceforge.net/DTD/sodipodi-0.dtd"
   xmlns:inkscape="http://www.inkscape.org/namespaces/inkscape"
   id="svg3355"
   version="1.1"
   inkscape:version="0.91 r13725"
   xml:space="preserve"
   viewBox="0 0 989.77972 357.42038"
   sodipodi:docname="logo.svg"><metadata
     id="metadata3361"><rdf:RDF><cc:Work
         rdf:about=""><dc:format>image/svg+xml</dc:format><dc:type
           rdf:resource="http://purl.org/dc/dcmitype/StillImage" /><dc:title></dc:title></cc:Work></rdf:RDF></metadata><defs
     id="defs3359"><clipPath
       clipPathUnits="userSpaceOnUse"
       id="clipPath3371"><path
         d="m 163,792 0,-792 286,0 0,792 -286,0 z"
         id="path3373"
         inkscape:connector-curvature="0" /></clipPath><clipPath
       clipPathUnits="userSpaceOnUse"
       id="clipPath3377"><path
         d="m 450.6659,791.9363 0,-791.8237638 -287.6022,0 0,791.8237638 287.6022,0 z"
         id="path3379"
         inkscape:connector-curvature="0" /></clipPath><clipPath
       clipPathUnits="userSpaceOnUse"
       id="clipPath3383"><path
         d="M 0,0 612,0 612,792 0,792 0,0 Z"
         id="path3385"
         inkscape:connector-curvature="0" /></clipPath><clipPath
       clipPathUnits="userSpaceOnUse"
       id="clipPath3395"><path
         d="m 163,792 0,-792 286,0 0,792 -286,0 z"
         id="path3397"
         inkscape:connector-curvature="0" /></clipPath><clipPath
       clipPathUnits="userSpaceOnUse"
       id="clipPath3401"><path
         d="M 0,0 612,0 612,792 0,792 0,0 Z"
         id="path3403"
         inkscape:connector-curvature="0" /></clipPath></defs><sodipodi:namedview
     pagecolor="#ffffff"
     bordercolor="#666666"
     borderopacity="1"
     objecttolerance="10"
     gridtolerance="10"
     guidetolerance="10"
     inkscape:pageopacity="0"
     inkscape:pageshadow="2"
     inkscape:window-width="1237"
     inkscape:window-height="758"
     id="namedview3357"
     showgrid="false"
     inkscape:zoom="0.43426356"
     inkscape:cx="276.5389"
     inkscape:cy="-77.649533"
     inkscape:window-x="148"
     inkscape:window-y="28"
     inkscape:window-maximized="0"
     inkscape:current-layer="layer1"
     fit-margin-top="0"
     fit-margin-left="0"
     fit-margin-right="0"
     fit-margin-bottom="0" /><g
     inkscape:groupmode="layer"
     id="layer1"
     inkscape:label="CAANiagara_CMYKHorzLogo.pdf 1"
     style="display:inline"
     transform="translate(-5636.3528,196.29219)"><g
       style="display:inline"
       id="g3445"
       transform="matrix(0,-1.25,-1.25,0,6626.2732,364.95781)"><g
         id="use3441"><g
           clip-path="url(#clipPath3371)"
           id="g3516"><g
             clip-path="url(#clipPath3377)"
             id="g3518"><g
               clip-path="url(#clipPath3383)"
               id="g3520"><path
                 inkscape:connector-curvature="0"
                 id="path3522"
                 style="fill:#ffffff;fill-opacity:1;fill-rule:nonzero;stroke:none"
                 d="m 308.3522,792 c 79.4219,0 142.3137,-91.4452 142.3137,-219.9223 0,-128.4781 -63.6393,-228.9825 -143.0622,-228.8954 -84.4903,0.0956 -146.5508,100.2889 -144.557,228.8954 C 164.9959,697.8306 228.9292,792 308.3522,792" /><path
                 inkscape:connector-curvature="0"
                 id="path3524"
                 style="fill:#1c4e9c;fill-opacity:1;fill-rule:nonzero;stroke:none"
                 d="m 196.1366,567.5912 c -0.6901,-115.1479 51.6499,-187.6754 111.4671,-190.6969 58.4838,-2.9588 111.4682,82.0739 111.4682,190.6969 0,108.6229 -47.7409,187.7082 -108.4775,187.7082 -60.7356,0 -113.807,-79.0885 -114.4578,-187.7082 z M 308.3522,792 c 79.4219,0 142.3137,-91.4452 142.3137,-219.9223 0,-128.4781 -63.6393,-228.9825 -143.0622,-228.8954 -84.4903,0.0956 -146.5508,100.2889 -144.557,228.8954 C 164.9959,697.8306 228.9292,792 308.3522,792" /></g></g></g></g><g
         id="use3443"><g
           clip-path="url(#clipPath3395)"
           id="g3528"><g
             clip-path="url(#clipPath3401)"
             id="g3530"><path
               inkscape:connector-curvature="0"
               id="path3532"
               style="fill:#ed192d;fill-opacity:1;fill-rule:nonzero;stroke:none"
               d="m 298.6316,594.5085 0,-42.6193 62.0605,20.9359 -62.0605,21.6834 z m 110.6613,-43.3678 -191.4145,-65.7976 -10.4669,40.3761 58.3213,16.4494 0,65.0512 -54.5832,17.9453 14.9535,38.1328 183.1898,-71.7801 0,-40.3771" /><g
               transform="matrix(0,-1.061662,1.061662,0,163,792)"
               id="g3534"><path
                 inkscape:connector-curvature="0"
                 id="path3536"
                 style="fill:none;stroke:#ffffff;stroke-width:3;stroke-linecap:butt;stroke-linejoin:miter;stroke-miterlimit:4;stroke-dasharray:none;stroke-opacity:1"
                 d="m 186.021,127.754 40.144,0 -19.72,58.456 -20.424,-58.456 z m 40.849,104.234 61.976,-180.297 -38.031,-9.859 -15.494,54.934 -61.273,0 -16.903,-51.413 -35.918,14.085 67.611,172.55 38.032,0 z" /></g><path
               inkscape:connector-curvature="0"
               id="path3538"
               style="fill:#ed192d;fill-opacity:1;fill-rule:nonzero;stroke:none"
               d="m 339.7561,657.6902 0,-37.3854 c 0,0 45.9838,4.1129 45.6101,54.5822 -0.3737,50.4714 -43.7415,61.3131 -68.4156,61.3131 -24.6741,0 -68.4167,-11.5891 -68.4167,-59.8162 0,-48.2281 45.9848,-54.958 50.4714,-54.958 l 0,37.0127 c 0,0 -21.3097,1.1212 -21.3097,17.9453 0,16.8231 18.319,21.3097 41.1246,21.3097 22.8045,0 37.3853,-6.7299 37.3853,-22.8066 0,-16.0746 -16.4494,-17.1968 -16.4494,-17.1968" /><g
               transform="matrix(0,-1.061662,1.061662,0,163,792)"
               id="g3540"><path
                 inkscape:connector-curvature="0"
                 id="path3542"
                 style="fill:none;stroke:#ffffff;stroke-width:3;stroke-linecap:butt;stroke-linejoin:miter;stroke-miterlimit:4;stroke-dasharray:none;stroke-opacity:1"
                 d="m 126.509,166.49 35.214,0 c 0,0 -3.874,43.313 -51.412,42.961 -47.54,-0.352 -57.752,-41.201 -57.752,-64.442 0,-23.241 10.916,-64.443 56.342,-64.443 45.427,0 51.766,43.314 51.766,47.54 l -34.863,0 c 0,0 -1.056,-20.072 -16.903,-20.072 -15.846,0 -20.072,17.255 -20.072,38.736 0,21.48 6.339,35.214 21.482,35.214 15.141,0 16.198,-15.494 16.198,-15.494 z" /></g><path
               inkscape:connector-curvature="0"
               id="path3544"
               style="fill:#ed192d;fill-opacity:1;fill-rule:nonzero;stroke:none"
               d="m 339.0087,465.902 -34.3957,11.2164 0,-22.4318 34.3957,11.2154 z m 40.375,-19.4401 -128.6044,-40.3761 0,33.6462 22.4297,5.9825 0,38.8812 -21.6823,5.9804 0,37.3853 127.857,-43.3657 0,-38.1338" /><g
               transform="matrix(0,-1.061662,1.061662,0,163,792)"
               id="g3546"><path
                 inkscape:connector-curvature="0"
                 id="path3548"
                 style="fill:none;stroke:#ffffff;stroke-width:3;stroke-linecap:butt;stroke-linejoin:miter;stroke-miterlimit:4;stroke-dasharray:none;stroke-opacity:1"
                 d="m 307.158,165.786 -10.565,-32.398 21.129,0 -10.564,32.398 z m 18.311,38.03 38.031,-121.135 -31.692,0 -5.635,21.127 -36.623,0 -5.633,-20.423 -35.214,0 40.847,120.431 35.919,0 z" /></g><path
               inkscape:connector-curvature="0"
               id="path3550"
               style="fill:#1c4e9c;fill-opacity:1;fill-rule:nonzero;stroke:none"
               d="m 178.4249,395.5647 c 0,-2.0076 0.1465,-3.8007 2.5469,-3.8007 1.9407,0 2.2964,1.756 2.2964,3.4079 l 0,3.2285 -4.8433,0 0,-2.8357 z m -8.7853,2.8357 0,2.3675 15.6383,0 0,-5.9548 c 0,-3.6967 -1.361,-5.5239 -4.4452,-5.5239 -2.7985,0 -4.0194,1.7581 -4.305,4.0524 l -6.8881,-4.4473 0,2.6563 6.7798,4.1235 0,2.7263 -6.7798,0 z m -3.4812,-2.8707 c 0,-6.1343 4.8073,-10.9755 11.3386,-10.9755 6.4199,0 11.2621,4.8412 11.2621,10.9755 0,6.2054 -4.8422,11.0487 -11.2621,11.0487 -6.5313,0 -11.3386,-4.8433 -11.3386,-11.0487 z m 11.3386,13.774 c 7.7809,0 13.5224,-6.3127 13.5224,-13.774 0,-7.3892 -5.7415,-13.7029 -13.5224,-13.7029 -7.8574,0 -13.5988,6.3137 -13.5988,13.7029 0,7.4613 5.7414,13.774 13.5988,13.774" /><path
               inkscape:connector-curvature="0"
               id="path3552"
               style="fill:#1c4e9c;fill-opacity:1;fill-rule:nonzero;stroke:none"
               d="m 308.6845,307.8799 -33.4806,0 0,13.1784 53.2859,0 0,-11.6942 -31.7671,-28.5661 31.7671,0 0,-13.1795 -53.2859,0 0,10.4372 33.4806,29.8242" /><path
               inkscape:connector-curvature="0"
               id="path3554"
               style="fill:#1c4e9c;fill-opacity:1;fill-rule:nonzero;stroke:none"
               d="m 319.609,255.7852 0,-11.4574 -44.4051,0 0,11.4574 44.4051,0 z" /><path
               inkscape:connector-curvature="0"
               id="path3556"
               style="fill:#1c4e9c;fill-opacity:1;fill-rule:nonzero;stroke:none"
               d="m 291.4548,220.8013 0,-13.1094 16.8857,6.2224 -16.8857,6.887 z m -16.2509,18.5993 44.4051,-19.3605 0,-12.8238 -44.4051,-17.2987 0,11.7759 8.6334,3.1744 0,19.1386 -8.6334,3.5555 0,11.8386" /><path
               inkscape:connector-curvature="0"
               id="path3558"
               style="fill:#1c4e9c;fill-opacity:1;fill-rule:nonzero;stroke:none"
               d="m 280.4082,145.8862 c -2.031,2.7083 -3.5386,5.5801 -4.5227,8.6175 -0.9842,3.0374 -1.4757,6.3625 -1.4757,9.9839 0,3.4918 0.535,6.6948 1.6031,9.6165 1.0691,2.9196 2.6191,5.4485 4.6501,7.5866 2.1371,2.2423 4.6341,3.9494 7.49,5.1247 2.8569,1.1742 5.9251,1.7623 9.2046,1.7623 6.9199,0 12.4862,-2.3016 16.6968,-6.9029 4.2105,-4.6023 6.3158,-10.7026 6.3158,-18.2988 0,-2.772 -0.3281,-5.5132 -0.9831,-8.2204 -0.6572,-2.7094 -1.6721,-5.4708 -3.047,-8.2853 l -9.745,0 c 1.5023,2.9409 2.6234,5.7447 3.3644,8.4127 0.74,2.6658 1.1116,5.1618 1.1116,7.4879 0,4.4887 -1.2177,8.0049 -3.6511,10.555 -2.4333,2.5501 -5.7882,3.8252 -10.0624,3.8252 -4.1681,0 -7.4858,-1.2167 -9.9499,-3.6511 -2.4652,-2.4322 -3.6978,-5.7011 -3.6978,-9.8076 0,-1.0999 0.1158,-2.1881 0.3493,-3.271 0.2325,-1.0776 0.5723,-2.1562 1.015,-3.2349 l 5.5875,0 0,6.1258 8.3468,0 0,-17.4261 -18.6003,0" /><path
               inkscape:connector-curvature="0"
               id="path3560"
               style="fill:#1c4e9c;fill-opacity:1;fill-rule:nonzero;stroke:none"
               d="m 291.4548,123.5658 0,-13.1083 16.8857,6.2202 -16.8857,6.8881 z m -16.2509,18.6003 44.4051,-19.3615 0,-12.8228 -44.4051,-17.29975 0,11.77595 8.6334,3.1744 0,19.1396 -8.6334,3.5545 0,11.8396" /><path
               inkscape:connector-curvature="0"
               id="path3562"
               style="fill:#1c4e9c;fill-opacity:1;fill-rule:nonzero;stroke:none"
               d="m 301.3909,71.28425 c 0,-2.05326 0.4278,-3.58099 1.2846,-4.58745 0.8567,-1.00433 2.1626,-1.50756 3.9196,-1.50756 1.6711,0 2.9461,0.52447 3.8241,1.5702 0.878,1.04786 1.3186,2.55648 1.3186,4.52481 l 0,5.3306 -10.3469,0 0,-5.3306 z m -26.187,16.47169 44.4051,0 0,-16.40906 c 0,-6.0313 -1.0479,-10.48497 -3.1425,-13.36314 -2.0958,-2.87604 -5.3434,-4.31672 -9.744,-4.31672 -2.4556,0 -4.5556,0.63594 -6.3009,1.90463 -1.7454,1.26974 -3.2222,3.21577 -4.4272,5.8402 -0.4023,-1.09882 -1.0744,-2.08935 -2.0171,-2.96628 -0.9417,-0.87906 -2.1308,-1.64664 -3.5704,-2.30169 l -15.203,-7.0781 0,12.53611 12.7909,5.65123 c 2.032,0.90878 3.4281,1.94708 4.1893,3.1096 0.7623,1.16359 1.1424,2.81447 1.1424,4.95053 0,0.17093 -0.0107,0.39388 -0.0298,0.66779 -0.0223,0.27603 -0.0329,0.48624 -0.0329,0.63381 l -18.0599,0 0,11.14109" /><path
               inkscape:connector-curvature="0"
               id="path3564"
               style="fill:#1c4e9c;fill-opacity:1;fill-rule:nonzero;stroke:none"
               d="m 291.4548,30.99735 0,-13.10834 16.8857,6.22028 -16.8857,6.88806 z m -16.2509,18.60032 44.4051,-19.36259 0,-12.82382 -44.4051,-17.2987238 0,11.7759538 8.6334,3.17437 0,19.14071 -8.6334,3.55445 0,11.83965" /></g></g></g></g></g></svg>
